<?xml version="1.0" encoding="UTF-8" standalone="no"?>
<!DOCTYPE svg PUBLIC "-//W3C//DTD SVG 1.1//EN"
 "http://www.w3.org/Graphics/SVG/1.1/DTD/svg11.dtd">
<!-- Generated by graphviz version 2.40.1 (20161225.0304)
 -->
<!-- Title: LR Pages: 1 -->
<svg width="90pt" height="116pt"
 viewBox="0.00 0.00 90.13 116.00" xmlns="http://www.w3.org/2000/svg" xmlns:xlink="http://www.w3.org/1999/xlink">
<g id="graph0" class="graph" transform="scale(1 1) rotate(0) translate(4 112)">
<title>LR</title>
<polygon fill="#ffffff" stroke="transparent" points="-4,4 -4,-112 86.1315,-112 86.1315,4 -4,4"/>
<!-- chicken -->
<g id="node1" class="node">
<title>chicken</title>
<ellipse fill="none" stroke="#000000" cx="41.0657" cy="-90" rx="41.1316" ry="18"/>
<text text-anchor="middle" x="41.0657" y="-85.8" font-family="Times,serif" font-size="14.00" fill="#000000">chicken</text>
</g>
<!-- egg -->
<g id="node2" class="node">
<title>egg</title>
<ellipse fill="none" stroke="#000000" cx="41.0657" cy="-18" rx="27" ry="18"/>
<text text-anchor="middle" x="41.0657" y="-13.8" font-family="Times,serif" font-size="14.00" fill="#000000">egg</text>
</g>
<!-- chicken&#45;&gt;egg -->
<g id="edge1" class="edge">
<title>chicken&#45;&gt;egg</title>
<path fill="none" stroke="#000000" d="M35.1134,-71.8314C34.3514,-64.0125 34.1354,-54.6923 34.4653,-46.0221"/>
<polygon fill="#000000" stroke="#000000" points="37.9662,-46.1239 35.1385,-35.9134 30.9816,-45.6587 37.9662,-46.1239"/>
</g>
<!-- egg&#45;&gt;chicken -->
<g id="edge2" class="edge">
<title>egg&#45;&gt;chicken</title>
<path fill="none" stroke="#000000" d="M46.993,-35.9134C47.7669,-43.6993 47.9948,-53.01 47.6768,-61.6941"/>
<polygon fill="#000000" stroke="#000000" points="44.174,-61.6254 47.0181,-71.8314 51.1592,-62.0794 44.174,-61.6254"/>
</g>
</g>
</svg>

